<svg id="Слой_1" data-name="Слой 1" xmlns="http://www.w3.org/2000/svg" viewBox="0 0 817.13 241.59"><defs><style>.cls-1{fill:#2e70ef;}.cls-2{fill:#fff;}</style></defs><polygon class="cls-1" points="175.06 78.23 175.06 239.79 116.46 239.79 35.59 116.11 35.59 239.79 0 239.79 0 77.86 33.55 47.94 139.47 209.93 139.47 94.19 60.56 23.86 87.33 0 175.06 78.23"/><path class="cls-2" d="M202.69,171.75V86.33h32.37v81.82q0,45.27,35.67,45.26,18.58,0,29.07-13.34t10.5-37V86.33h32.36V239.79H310.59V220.31q-17.38,21.28-47.35,21.28-27,0-43.76-16.49T202.69,171.75Z"/><path class="cls-2" d="M356.15,86.33h34.77L433.18,205,474.84,86.33H509L452.36,239.79H412.8Z"/><path class="cls-2" d="M509.91,163.06q0-35.07,21.58-56.8t56.64-21.73q35.07,0,56.65,21.73t21.58,56.8q0,35.37-21.58,56.95t-56.65,21.58q-35.05,0-56.64-21.58T509.91,163.06Zm45.55,36.72Q567.74,214,588.13,214T621,199.78q12.43-14.24,12.44-36.72T621,126.34q-12.44-14.24-32.82-14.24t-32.67,14.24q-12.29,14.24-12.29,36.72T555.46,199.78Z"/><path class="cls-2" d="M713.72,189.13a25.92,25.92,0,0,0,11.09,19.79q10.19,7.49,27.28,7.49,15,0,24.13-5.4t9.14-14.68a19.11,19.11,0,0,0-2.1-9.44q-2.1-3.75-7.64-5.85a62.63,62.63,0,0,0-10.34-3q-4.8-.89-15.29-2.09a12.91,12.91,0,0,0-2.4-.3,219.44,219.44,0,0,1-24.88-4.2,90.29,90.29,0,0,1-19.18-7,32.09,32.09,0,0,1-13.93-12.74q-4.65-8.1-4.65-19.48,0-21.59,17.53-34.77t45.41-12.89q28.77,0,46.91,12.89t19.63,36H782.66A24.82,24.82,0,0,0,771.87,116q-9.3-6.59-23.38-6.59-14.38,0-23.08,5.39t-8.69,14.69a16,16,0,0,0,1,6.14,10.61,10.61,0,0,0,3.74,4.5,33.13,33.13,0,0,0,5.25,3.15,31.49,31.49,0,0,0,7.65,2.09c3.39.61,6.29,1,8.69,1.35l10.49,1.35q12,1.52,20.23,3.15a112.67,112.67,0,0,1,17.08,4.94,44.86,44.86,0,0,1,14.09,8,36.16,36.16,0,0,1,8.69,12.14,41.31,41.31,0,0,1,3.45,17.38q0,21.59-18.28,34.77t-46.76,13.19q-31.19,0-50.36-13.94T682,189.13Z"/></svg>